<svg xmlns="http://www.w3.org/2000/svg" width="142.463" height="35.223" viewBox="0 0 142.463 35.223">
  <g id="partner4" transform="translate(0 -0.05)">
    <path id="Path_695" data-name="Path 695" d="M4.621.052H30.474A4.633,4.633,0,0,1,35.1,4.69V30.639a4.631,4.631,0,0,1-4.621,4.636H4.621A4.631,4.631,0,0,1,0,30.639V4.678A4.622,4.622,0,0,1,4.621.052" transform="translate(0 -0.002)" fill="#5468ff"/>
    <path id="Path_696" data-name="Path 696" d="M40.817,21.182v-1.2a1.523,1.523,0,0,0-1.524-1.522H35.741a1.523,1.523,0,0,0-1.524,1.522v1.236a.211.211,0,0,0,.266.2,11.1,11.1,0,0,1,3.091-.436,11.275,11.275,0,0,1,2.986.4.206.206,0,0,0,.256-.2m-9.734,1.575-.607-.607a1.523,1.523,0,0,0-2.154,0l-.725.724a1.516,1.516,0,0,0,0,2.151l.6.6a.216.216,0,0,0,.32-.022,11.661,11.661,0,0,1,1.163-1.363,11.019,11.019,0,0,1,1.375-1.17.2.2,0,0,0,.032-.31m6.482,3.821v5.206a.2.2,0,0,0,.3.181l4.628-2.4a.21.21,0,0,0,.085-.287,5.758,5.758,0,0,0-4.8-2.907.211.211,0,0,0-.214.2m0,12.541a6.983,6.983,0,1,1,6.994-6.984,6.994,6.994,0,0,1-6.994,6.984m0-16.9a9.916,9.916,0,1,0,9.926,9.91,9.923,9.923,0,0,0-9.926-9.91" transform="translate(-19.612 -13.296)" fill="#fff"/>
    <path id="Path_697" data-name="Path 697" d="M188.144,27.988c-6.833.032-6.833-5.535-6.833-6.421L181.3.714,185.468.05V20.776c0,.5,0,3.687,2.676,3.7v3.515Zm-16.9-3.408a16.025,16.025,0,0,0,2.89-.2V20.126a8.516,8.516,0,0,0-1-.2,9.831,9.831,0,0,0-1.449-.107,8.853,8.853,0,0,0-1.4.107,4.192,4.192,0,0,0-1.269.374,2.286,2.286,0,0,0-.907.769,1.459,1.459,0,0,0-.341,1.026,2.005,2.005,0,0,0,.959,1.923A4.85,4.85,0,0,0,171.246,24.58Zm-.363-15.171a10.245,10.245,0,0,1,3.476.514,5.559,5.559,0,0,1,2.249,1.431,5.555,5.555,0,0,1,1.183,2.319,10.687,10.687,0,0,1,.363,2.894V27.316c-.639.138-1.61.3-2.91.49a30.151,30.151,0,0,1-4.383.289,13.29,13.29,0,0,1-2.952-.31,6.226,6.226,0,0,1-2.293-.994,4.822,4.822,0,0,1-1.481-1.773A6.754,6.754,0,0,1,163.6,22.2a4.424,4.424,0,0,1,.6-2.383,5.051,5.051,0,0,1,1.631-1.73,7,7,0,0,1,2.388-.961,13.665,13.665,0,0,1,2.835-.289,14.161,14.161,0,0,1,1.451.085,13.043,13.043,0,0,1,1.622.289v-.684a5.179,5.179,0,0,0-.171-1.366,2.941,2.941,0,0,0-.6-1.143,2.777,2.777,0,0,0-1.129-.769,4.914,4.914,0,0,0-1.781-.321,15.14,15.14,0,0,0-2.634.257,12.019,12.019,0,0,0-1.962.48l-.5-3.428a16.305,16.305,0,0,1,2.3-.544,17.045,17.045,0,0,1,3.23-.279Zm82.33,15.053a15.836,15.836,0,0,0,2.888-.2v-4.25a8.4,8.4,0,0,0-1-.2,9.854,9.854,0,0,0-1.451-.107,8.881,8.881,0,0,0-1.4.107,4.2,4.2,0,0,0-1.268.374,2.277,2.277,0,0,0-.907.769,1.453,1.453,0,0,0-.341,1.026A2.005,2.005,0,0,0,250.7,23.9,4.776,4.776,0,0,0,253.213,24.463ZM252.861,9.3a10.248,10.248,0,0,1,3.476.512,5.562,5.562,0,0,1,2.249,1.431,5.626,5.626,0,0,1,1.183,2.319,10.69,10.69,0,0,1,.363,2.9V27.208c-.639.138-1.61.3-2.91.492a30.15,30.15,0,0,1-4.382.288,13.279,13.279,0,0,1-2.952-.31,6.223,6.223,0,0,1-2.293-.994,4.821,4.821,0,0,1-1.481-1.773,6.749,6.749,0,0,1-.534-2.821,4.437,4.437,0,0,1,.6-2.383,5.05,5.05,0,0,1,1.63-1.73,7.03,7.03,0,0,1,2.388-.961,13.669,13.669,0,0,1,2.837-.288,14.165,14.165,0,0,1,1.449.085,12.162,12.162,0,0,1,1.62.289v-.684a5.171,5.171,0,0,0-.17-1.368,2.927,2.927,0,0,0-.6-1.143,2.78,2.78,0,0,0-1.129-.769,4.918,4.918,0,0,0-1.781-.32,15.286,15.286,0,0,0-2.634.255,12,12,0,0,0-1.962.481l-.5-3.43a16.506,16.506,0,0,1,2.3-.544A18.059,18.059,0,0,1,252.861,9.3ZM240.344,7.316a2.532,2.532,0,1,0-2.537-2.533A2.539,2.539,0,0,0,240.344,7.316Zm2.1,20.671h-4.19V9.954l4.189-.662v18.7Zm-7.345,0c-6.833.032-6.833-5.535-6.833-6.421L228.253.714,232.422.05V20.776c0,.5,0,3.687,2.676,3.7Zm-13.551-9.23a7.358,7.358,0,0,0-1.162-4.359,4.069,4.069,0,0,0-6.439,0,7.378,7.378,0,0,0-1.142,4.359,6.546,6.546,0,0,0,1.152,4.112,4.052,4.052,0,0,0,6.44,0A6.566,6.566,0,0,0,221.547,18.758Zm4.264-.01a10.15,10.15,0,0,1-.618,3.643,8.641,8.641,0,0,1-1.758,2.981,7.765,7.765,0,0,1-2.73,1.912,11.063,11.063,0,0,1-3.529.7,10.854,10.854,0,0,1-3.508-.7,7.939,7.939,0,0,1-2.718-1.912,8.829,8.829,0,0,1-1.771-2.981,9.948,9.948,0,0,1-.639-3.643,11.443,11.443,0,0,1,.619-3.921,8.691,8.691,0,0,1,1.791-2.959,8,8,0,0,1,2.729-1.9,8.8,8.8,0,0,1,3.476-.662,9.069,9.069,0,0,1,3.486.662,7.59,7.59,0,0,1,2.73,1.9,8.833,8.833,0,0,1,1.769,2.959,10.971,10.971,0,0,1,.671,3.921Zm-31.376,0c0,1.751.383,3.7,1.151,4.507a3.906,3.906,0,0,0,2.976,1.218,6.308,6.308,0,0,0,1.876-.277,5.315,5.315,0,0,0,1.429-.652V13.171a16.273,16.273,0,0,0-2.752-.352,4.151,4.151,0,0,0-3.474,1.569A7.41,7.41,0,0,0,194.435,18.748Zm11.589,8.246q0,4.279-2.186,6.261t-6.694,1.987a28.642,28.642,0,0,1-5.2-.619l.671-3.312a25.479,25.479,0,0,0,4.6.407,5.089,5.089,0,0,0,3.581-1.026,4.019,4.019,0,0,0,1.066-3.045v-.684a12.54,12.54,0,0,1-1.63.621,8.068,8.068,0,0,1-2.325.31,8.692,8.692,0,0,1-3.144-.546,6.552,6.552,0,0,1-2.442-1.6,7.322,7.322,0,0,1-1.578-2.649,15.5,15.5,0,0,1-.566-4.337,13.171,13.171,0,0,1,.6-4.029,7.692,7.692,0,0,1,1.759-2.809,8.085,8.085,0,0,1,2.8-1.817,10.259,10.259,0,0,1,3.783-.715,22.669,22.669,0,0,1,3.818.374,30.5,30.5,0,0,1,3.091.65V26.994Z" transform="translate(-117.669)" fill="#5468ff"/>
  </g>
</svg>
