<svg xmlns="http://www.w3.org/2000/svg" width="117.943" height="36.938" viewBox="0 0 117.943 36.938">
  <g id="partner1" transform="translate(0 -0.772)">
    <path id="Path_707" data-name="Path 707" d="M11.557,1.031,0,11.118l5.714,4.339,4.145-2.6v24.35H22.183V1.031Zm96.719,24.926a24.192,24.192,0,0,1-18.407,1.8c-3.244-.88-5.793-2.791-8.241-4.718-3.746-2.949-6.765-6.433-9.984-9.762a45.234,45.234,0,0,0-11.46-9.15A26.636,26.636,0,0,0,47.878.838C40.83.768,34.942,2.986,30.364,7.471a15.281,15.281,0,0,0-2.87,3.788,19.812,19.812,0,0,0-1.776,4.363c.17-.264,1.054-2.115,1.222-2.38a8.435,8.435,0,0,1,1.4-1.867,10.054,10.054,0,0,1,3.482-2.541c6.159-2.713,14.6-1.738,19.8,2.221,4.567,3.481,8.356,7.555,12.526,11.339,3.9,3.535,7.577,7.251,11.91,10.427a23.966,23.966,0,0,0,14.774,4.823c9.984-.085,18.651-5.619,21.237-13.714a8.1,8.1,0,0,0,.505-3.306A10.211,10.211,0,0,1,108.276,25.957ZM53.955,24.873c-2.337,1.438-4.736,2.787-7.894,2.152-3.945-.794-6.567-2.8-7.421-6.125-.8-3.1.322-5.789,3.3-7.851a10.242,10.242,0,0,1,4.432-1.7,18.067,18.067,0,0,1,2.855.018,18.911,18.911,0,0,0-10.161-2.53c-6.115.072-9.886,2.163-12.157,6.919a10.808,10.808,0,0,0-1.41,6.009,17.417,17.417,0,0,0,8.335,11.994,24.528,24.528,0,0,0,21.776,2.487c4.922-1.651,8.778-5.16,12.357-8.28l-8.2-7.806A40.738,40.738,0,0,1,53.955,24.873ZM102.591,8.147A7.358,7.358,0,0,1,103.7,4.295,25.238,25.238,0,0,0,86.159,1.207C80.077,2.368,75.3,5.315,70.923,8.861a11.748,11.748,0,0,0-.977.928L78.3,18.277l.806-.683a31.011,31.011,0,0,1,7.026-5.181A8.491,8.491,0,0,1,89.716,11.3c3.937-.105,6.96,1.306,8.823,4.177,1.848,2.848,1.522,5.7-.646,8.384A10.821,10.821,0,0,1,93.1,26.912a24.45,24.45,0,0,0,12.429-1.143c4.716-1.828,7.018-5.922,6.909-9.141C106.974,16.5,102.591,12.752,102.591,8.147Z" transform="translate(0 0)" fill="#919fa1"/>
    <path id="Path_708" data-name="Path 708" d="M458.427,20.155v1.266h-1.5v4.452h-1.579V21.421H453.81V20.155Zm3.316,4.449a.884.884,0,0,0,.6-.188.613.613,0,0,0,.218-.482c0-.2-.076-.215-.227-.33a.953.953,0,0,0-.587-.172H460.8V24.6Zm-.133-2.209v-.016a.827.827,0,0,0,.5-.147.478.478,0,0,0,0-.776.829.829,0,0,0-.5-.147H460.8V22.4Zm.237-2.238.028-.025a2.848,2.848,0,0,1,.814.114,1.784,1.784,0,0,1,.625.319,1.5,1.5,0,0,1,.4.49,2.029,2.029,0,0,1,.126,1.067,1.354,1.354,0,0,1-.208.327,1.267,1.267,0,0,1-.284.245,1.115,1.115,0,0,1-.284.131v.008a1.036,1.036,0,0,1,.376.11,1.382,1.382,0,0,1,.369.3,1.622,1.622,0,0,1,.256.417,1.2,1.2,0,0,1,.1.474,1.679,1.679,0,0,1-.142.694,1.478,1.478,0,0,1-.426.547,2.073,2.073,0,0,1-.719.368,3.53,3.53,0,0,1-1.032.131h-2.6V20.158Z" transform="translate(-346.223 -16.412)" fill="#3390da"/>
  </g>
</svg>
