<svg xmlns="http://www.w3.org/2000/svg" width="139.589" height="29.352" viewBox="0 0 139.589 29.352">
  <g id="BigSpring" transform="translate(0 0.24)">
    <g id="Group_25" data-name="Group 25" transform="translate(0 -0.24)">
      <path id="Path_657" data-name="Path 657" d="M5433.276-771.565c.752.529,1.521,1.029,2.233,1.626,3.369,2.826,3.176,9.368-1.435,11.733a12.189,12.189,0,0,1-5.6,1.268c-3.935.023-7.87,0-11.8.018-.488,0-.659-.111-.657-.649.02-4.686,0-9.372.014-14.059a3.291,3.291,0,0,1,3.175-3.38c.638-.089,1.289-.052,1.921-.192a42.854,42.854,0,0,1,9.351,2.355q1.014.385,2.024.777A1.3,1.3,0,0,1,5433.276-771.565Z" transform="translate(-5416.019 783.351)" fill="#00dcc0"/>
      <path id="Path_658" data-name="Path 658" d="M5433.321-818.178a60,60,0,0,0-7.237-2.451c-1.59-.357-3.168-.775-4.786-.988-.216-.16-.562.065-.72-.261-.672-.192-1.347-.376-2.016-.579a3.279,3.279,0,0,1-2.458-3.279c-.057-1.261-.019-2.527-.031-3.791,0-.255.027-.422.343-.416,4.726.1,9.457-.2,14.178.179a8.069,8.069,0,0,1,2.45.613c2.924,1.222,3.7,3.863,3.382,6.605A5.5,5.5,0,0,1,5433.321-818.178Z" transform="translate(-5416.063 829.964)" fill="#125eec"/>
      <path id="Path_659" data-name="Path 659" d="M5877.522-804.93a6.537,6.537,0,0,1,5,2.514,5.571,5.571,0,0,1,.959,2.134c.089.373-.012.52-.387.6a21.633,21.633,0,0,0-2.376.627c-.438.148-.562,0-.731-.379a3.607,3.607,0,0,0-4.949-1.749,1.643,1.643,0,0,0-.926,1.556,1.5,1.5,0,0,0,1.008,1.4c1.841.862,3.836,1.312,5.652,2.23a5.663,5.663,0,0,1,2.847,2.515,5.556,5.556,0,0,1-2.473,7.22,7.749,7.749,0,0,1-8.712-.709,6.552,6.552,0,0,1-2.4-4.584c-.042-.316.012-.5.371-.569.946-.186,1.891-.384,2.819-.641.424-.118.488.051.549.4a7.251,7.251,0,0,0,.3,1.216c.754,2.075,1.982,2.792,4.1,2.4a4.66,4.66,0,0,0,1.245-.365,1.824,1.824,0,0,0,1.161-1.721,2,2,0,0,0-1.061-1.883,16.738,16.738,0,0,0-3.685-1.488,11.84,11.84,0,0,1-3.306-1.616c-2.56-1.7-2.487-5.792-.018-7.714A7.187,7.187,0,0,1,5877.522-804.93Z" transform="translate(-5804.247 808.658)" fill="#101419"/>
      <path id="Path_660" data-name="Path 660" d="M6194.4-772.209c1.772-1.849,3.732-2.328,5.911-1.371a4.567,4.567,0,0,1,2.751,4.423c.053,3.071.007,6.145.021,9.217,0,.388-.1.517-.483.5-.8-.028-1.593-.034-2.388,0-.431.019-.511-.145-.509-.55.017-2.577.009-5.153.009-7.73,0-.2.007-.4-.009-.594-.142-1.685-.929-2.547-2.272-2.495-1.925.074-2.86.959-2.868,2.753-.011,2.651-.015,5.3.01,7.953,0,.5-.084.7-.617.664-.793-.051-1.592-.033-2.387,0-.389.014-.482-.124-.482-.508q.019-6.578,0-13.157c0-.383.1-.526.483-.511a17.114,17.114,0,0,0,2.1-.006c.6-.05.848.128.737.756A4.641,4.641,0,0,0,6194.4-772.209Z" transform="translate(-6078.802 782.382)" fill="#101419"/>
      <path id="Path_661" data-name="Path 661" d="M6088.12-771.89c1.012-1.492,2.176-2.081,3.735-1.719.364.085.469.229.4.608-.152.8-.282,1.607-.379,2.416-.043.372-.124.494-.528.432-1.936-.293-2.922.527-2.975,2.572-.066,2.573-.055,5.149-.031,7.724.006.6-.167.755-.724.72-.768-.048-1.542-.026-2.313-.005-.313.008-.41-.088-.41-.416q.014-6.722,0-13.445c0-.35.087-.475.441-.462a21.184,21.184,0,0,0,2.168,0c.515-.035.695.138.623.654A8.15,8.15,0,0,0,6088.12-771.89Z" transform="translate(-5987.991 782.086)" fill="#101419"/>
      <path id="Path_662" data-name="Path 662" d="M5729.648-763.906c0,2.132-.012,4.263.01,6.395,0,.465-.085.653-.583.624-.793-.046-1.592-.031-2.388,0-.378.013-.491-.108-.49-.5q.019-6.581,0-13.161c0-.381.1-.525.483-.513.82.026,1.642.031,2.461,0,.423-.017.517.138.513.545C5729.639-768.318,5729.648-766.112,5729.648-763.906Z" transform="translate(-5681.261 779.837)" fill="#101419"/>
      <path id="Path_663" data-name="Path 663" d="M6150.064-763.963c0,2.132-.015,4.264.011,6.4.006.493-.078.7-.615.669-.77-.051-1.545-.03-2.316-.005-.362.011-.5-.078-.5-.484q.028-6.582.014-13.165c0-.43.133-.542.532-.527.771.03,1.546.036,2.317,0,.444-.022.57.107.565.572C6150.05-768.326,6150.064-766.144,6150.064-763.963Z" transform="translate(-6040.799 779.847)" fill="#101419"/>
      <path id="Path_664" data-name="Path 664" d="M5728.008-804.738c-1.758,0-1.758,0-1.758-1.791,0-1.484,0-1.488,1.482-1.482.623,0,1.428-.208,1.819.109.418.338.124,1.2.135,1.835.022,1.328.007,1.329-1.317,1.329Z" transform="translate(-5681.306 811.335)" fill="#11151a"/>
      <path id="Path_665" data-name="Path 665" d="M6148.124-807.644c1.638,0,1.638,0,1.637,1.691,0,1.583,0,1.6-1.511,1.577-.617-.008-1.438.284-1.793-.134-.3-.355-.092-1.176-.092-1.791,0-1.342,0-1.342,1.325-1.342Z" transform="translate(-6040.496 810.966)" fill="#101419"/>
      <path id="Path_666" data-name="Path 666" d="M5439.354-775.64c.231.112.519.06.72.261l-2.044,0C5438.429-775.7,5438.949-775.357,5439.354-775.64Z" transform="translate(-5434.84 783.726)" fill="#59d4dc"/>
      <path id="Path_667" data-name="Path 667" d="M5626.231-793.9a5.32,5.32,0,0,0,1.2-1.163,4.48,4.48,0,0,0,.292-4.457,4.644,4.644,0,0,0-3.984-2.916c-2.764-.245-5.544-.045-8.316-.1-.477-.01-.478.229-.477.588q.012,4.571,0,9.142,0,4.274,0,8.547c0,.232-.148.573.328.561,2.987-.076,5.985.237,8.961-.173a5.3,5.3,0,0,0,4.5-4.311A4.954,4.954,0,0,0,5626.231-793.9Zm-7.168-5.309c1.158.019,2.317-.012,3.475.016a1.975,1.975,0,0,1,2.113,2.113,1.959,1.959,0,0,1-2.124,2.087c-.554.017-1.11,0-1.665,0v0c-.6,0-1.208-.02-1.809.007-.367.017-.507-.078-.5-.485.027-1.09.029-2.182,0-3.271C5618.544-799.156,5618.715-799.21,5619.063-799.2Zm4.256,11.957c-.718.052-1.442.009-2.164.009v.039c-.7,0-1.4-.013-2.095.005-.343.009-.516-.048-.505-.475.029-1.31.021-2.62,0-3.931,0-.347.084-.47.439-.464,1.42.023,2.841-.014,4.26.03a2.156,2.156,0,0,1,2.135,2.23C5625.414-788.2,5624.748-787.35,5623.319-787.247Z" transform="translate(-5586.117 806.637)" fill="#101419"/>
      <path id="Path_668" data-name="Path 668" d="M6299.911-773.247c-.368-.323-1.187-.114-1.808-.118-1.28-.008-1.28,0-1.466,1.247a10.144,10.144,0,0,0-.842-.784,5.511,5.511,0,0,0-6.8.673c-2.878,2.775-2.828,7.625-1.3,10.3,1.947,3.393,6.4,4.237,8.862,1.411,0,.635,0,1.195,0,1.754a2.629,2.629,0,0,1-2.789,2.954,3.641,3.641,0,0,1-3.5-2.306c-.467.322-.887.61-1.3.9-1.4.973-1.412,1.124-.227,2.421.034.036.069.069.1.1a6.71,6.71,0,0,0,5.153,1.889,5.924,5.924,0,0,0,6.026-6.181q0-6.207,0-12.414C6300.023-772.038,6300.3-772.906,6299.911-773.247Zm-3.315,5.711c-.016.42,0,.841,0,1.262s0,.842,0,1.262a2.8,2.8,0,0,1-1.774,2.855,3.149,3.149,0,0,1-3.485-.666c-1.651-1.543-1.642-5.736.192-7.123a3.156,3.156,0,0,1,3.4-.437A2.754,2.754,0,0,1,6296.6-767.537Z" transform="translate(-6160.53 782.146)" fill="#101419"/>
      <path id="Path_669" data-name="Path 669" d="M5777.554-772.965c0-.4-.166-.44-.477-.429-.531.018-1.062,0-1.592,0-1.143,0-1.142,0-1.2,1.166,0,.026-.066.049-.1.075a9.865,9.865,0,0,0-.846-.794,5.522,5.522,0,0,0-6.9.817c-2.663,2.7-2.759,7.333-1.2,10.124,1.987,3.545,6.5,4.223,8.9,1.42,0,.824.026,1.489-.005,2.15a2.465,2.465,0,0,1-1.867,2.439,3.474,3.474,0,0,1-3.656-.963c-.332-.343-.429-1.077-.884-1.041-.439.035-.848.517-1.266.808-1.394.972-1.408,1.135-.223,2.4.033.036.068.07.1.1a6.846,6.846,0,0,0,5.673,1.838,5.758,5.758,0,0,0,5.5-5.7C5777.605-763.349,5777.539-768.158,5777.554-772.965Zm-3.381,6.6h-.013c0,.52.027,1.041-.005,1.559a2.777,2.777,0,0,1-1.865,2.653,3.037,3.037,0,0,1-3.357-.661c-1.753-1.711-1.726-5.479.048-7.067a3.088,3.088,0,0,1,3.443-.553,2.794,2.794,0,0,1,1.751,2.881C5774.168-767.156,5774.173-766.759,5774.173-766.363Z" transform="translate(-5713.771 782.167)" fill="#101419"/>
      <path id="Path_670" data-name="Path 670" d="M5991.409-769.466a5.932,5.932,0,0,0-4.805-4.324,4.939,4.939,0,0,0-4.75,1.669,4.107,4.107,0,0,1,0-.579c.112-.628-.139-.813-.737-.757a11.56,11.56,0,0,1-1.881,0c-.5-.035-.649.1-.647.64q.029,9.446,0,18.892c0,.5.093.712.626.673a11.3,11.3,0,0,1,2.025,0c.676.073.781-.2.771-.821-.038-2.143-.015-4.287-.015-6.462.111.045.166.05.189.08,1.835,2.337,6.127,2.062,8.105-.706A8.807,8.807,0,0,0,5991.409-769.466Zm-4.208,6.644a3.047,3.047,0,0,1-3.437.569,2.79,2.79,0,0,1-1.755-2.731c-.013-.47,0-.941,0-1.411,0-.4,0-.792,0-1.188a2.925,2.925,0,0,1,1.924-2.994,3.32,3.32,0,0,1,3.57.937C5988.979-767.923,5988.844-764.356,5987.2-762.822Z" transform="translate(-5897.09 782.221)" fill="#101419"/>
    </g>
  </g>
</svg>
