<svg xmlns="http://www.w3.org/2000/svg" width="150.59" height="37.655" viewBox="0 0 150.59 37.655">
  <g id="partner5" transform="translate(-121 -428)">
    <g id="Group_31" data-name="Group 31" transform="translate(121 428)">
      <g id="Group_29" data-name="Group 29" transform="translate(44.295 8.558)">
        <path id="Path_698" data-name="Path 698" d="M.6,25.916V8.8H2.982L14.306,22.574V8.8h2.265V25.916H14.188L2.865,12.006v13.91Z" transform="translate(-0.6 -6.545)" fill="#b52e31" fill-rule="evenodd"/>
        <path id="Path_699" data-name="Path 699" d="M81.883,24.872a14.771,14.771,0,0,1-4.824.788Q67,25.66,67,16.749,67,8.314,76.706,8.3a18.518,18.518,0,0,1,5.177.706v1.9a14.45,14.45,0,0,0-4.912-.842c-5.059,0-7.588,2.228-7.588,6.629,0,4.754,2.5,7.118,7.471,7.118a13.971,13.971,0,0,0,2.647-.3V17.782h2.382v7.091Z" transform="translate(-47.47 -6.181)" fill="#b52e31" fill-rule="evenodd"/>
        <path id="Path_700" data-name="Path 700" d="M130.6,19.314V8.8h2.382V19.314c0,3.287,1.765,4.945,5.324,4.945,3.529,0,5.324-1.657,5.324-4.945V8.8h2.382V19.314c0,4.483-2.559,6.738-7.706,6.738S130.6,23.8,130.6,19.314Z" transform="translate(-92.364 -6.545)" fill="#b52e31" fill-rule="evenodd"/>
        <path id="Path_701" data-name="Path 701" d="M199.882,8.8V24.123h9.706v1.793H197.5V8.8Z" transform="translate(-139.588 -6.545)" fill="#b52e31" fill-rule="evenodd"/>
        <path id="Path_702" data-name="Path 702" d="M244.3,19.871h-2.5L251.006.5l9.206,19.371h-2.647l-2.382-5.379h-6.118l.647-1.793h4.677l-3.471-7.743L244.3,19.871Z" transform="translate(-170.858 -0.5)" fill="#b52e31" fill-rule="evenodd"/>
        <path id="Path_703" data-name="Path 703" d="M313.1,25.916V8.8h7.912c3.529,0,5.294,1.358,5.294,4.1,0,2.228-1.735,3.885-5.177,4.945l6.353,8.069h-3.147l-5.882-7.688v-1.44c3.529-.516,5.324-1.766,5.324-3.776,0-1.576-.971-2.364-2.941-2.364h-5.294V25.916Z" transform="translate(-221.187 -6.545)" fill="#b52e31" fill-rule="evenodd"/>
      </g>
      <g id="Group_30" data-name="Group 30">
        <path id="Path_704" data-name="Path 704" d="M0,6.249,18.971,0,38.442,6.14,35.294,29.314,18.971,37.655,2.912,29.423,0,6.249Z" fill="#e23237" fill-rule="evenodd"/>
        <path id="Path_705" data-name="Path 705" d="M83.971,6.14,64.5,0V37.655l16.324-8.341L83.971,6.14Z" transform="translate(-45.529)" fill="#b52e31" fill-rule="evenodd"/>
        <path id="Path_706" data-name="Path 706" d="M36.224,16.2h0L24.4,40.488l4.412-.081,2.382-5.488H41.753l2.588,5.542,4.206.081L36.224,16.2Zm.029,7.8,4,7.716h-7.5L36.253,24Z" transform="translate(-17.223 -11.799)" fill="#fff" fill-rule="evenodd"/>
      </g>
    </g>
  </g>
</svg>
