<svg xmlns="http://www.w3.org/2000/svg" xmlns:xlink="http://www.w3.org/1999/xlink" width="20" height="20" viewBox="0 0 20 20"><defs><clipPath id="b"><rect width="20" height="20"/></clipPath></defs><g id="a" clip-path="url(#b)"><path d="M23.421,4.547,4.745,12.687a.428.428,0,0,0,.015.778l5.052,2.854a.815.815,0,0,0,.931-.092L20.7,7.64c.066-.056.224-.163.285-.1s-.036.219-.092.285L12.28,17.53a.812.812,0,0,0-.081.972l3.3,5.3a.43.43,0,0,0,.773-.01L24,5.111A.428.428,0,0,0,23.421,4.547Z" transform="translate(6.186 -10.18) rotate(45)" fill="#722ed1"/></g></svg>