<svg xmlns="http://www.w3.org/2000/svg" width="56.198" height="50" viewBox="0 0 56.198 50">
  <g id="partner_2" transform="translate(-4.822 -4.639)">
    <path id="Path_684" data-name="Path 684" d="M61.449,30.72q-.9-.308-1.809-.57.151-.614.28-1.234c1.369-6.648.474-12-2.584-13.766-2.932-1.691-7.726.072-12.569,4.286q-.716.624-1.4,1.284-.458-.439-.931-.86c-5.075-4.506-10.162-6.4-13.216-4.637-2.929,1.7-3.8,6.73-2.563,13.03q.184.936.415,1.861c-.72.2-1.415.422-2.08.654-5.95,2.074-9.749,5.325-9.749,8.7,0,3.483,4.079,6.976,10.276,9.094q.754.256,1.52.475-.249,1-.441,2.006c-1.175,6.19-.257,11.106,2.664,12.791,3.017,1.74,8.081-.049,13.012-4.359q.585-.511,1.173-1.081.74.714,1.519,1.386c4.776,4.11,9.493,5.77,12.412,4.08,3.014-1.745,3.994-7.025,2.722-13.45q-.146-.736-.337-1.5.533-.157,1.045-.326C67.249,46.447,71.441,43,71.441,39.467c0-3.384-3.922-6.657-9.992-8.747Z" transform="translate(-10.421 -9.875)" fill="#8989a2"/>
    <path id="Path_685" data-name="Path 685" d="M67.3,53.538c-.307.1-.623.2-.944.3a56.346,56.346,0,0,0-2.846-7.119A56.323,56.323,0,0,0,66.248,39.7c.575.167,1.133.342,1.671.527,5.2,1.79,8.373,4.437,8.373,6.476,0,2.172-3.426,4.993-8.988,6.836Zm-2.308,4.574a20.329,20.329,0,0,1,.27,7.417c-.335,1.8-1.008,3.007-1.84,3.489-1.771,1.025-5.559-.307-9.643-3.822q-.7-.6-1.413-1.288a56.416,56.416,0,0,0,4.711-5.981,56.042,56.042,0,0,0,7.611-1.173q.172.694.3,1.359ZM41.653,68.84c-1.73.611-3.108.628-3.941.148-1.773-1.022-2.509-4.969-1.5-10.263q.179-.938.41-1.866a56.453,56.453,0,0,0,7.573,1.1,58.418,58.418,0,0,0,4.824,5.96q-.523.506-1.071.986a20.333,20.333,0,0,1-6.291,3.938ZM33.547,53.525a20.338,20.338,0,0,1-6.555-3.482c-1.394-1.194-2.1-2.379-2.1-3.341,0-2.046,3.051-4.656,8.139-6.43q.958-.333,1.934-.609a57.576,57.576,0,0,0,2.739,7.1,58.452,58.452,0,0,0-2.773,7.2Q34.236,53.759,33.547,53.525Zm2.717-18.5c-1.056-5.4-.355-9.469,1.41-10.491,1.88-1.088,6.037.464,10.419,4.354.28.249.561.509.843.778a57.531,57.531,0,0,0-4.787,5.924,58.662,58.662,0,0,0-7.5,1.165q-.215-.861-.386-1.732Zm24.241,5.986Q59.682,39.59,58.8,38.2c1.793.226,3.511.527,5.124.9a51.212,51.212,0,0,1-1.8,4.839q-.779-1.478-1.617-2.924ZM50.62,31.385a51.342,51.342,0,0,1,3.307,3.992q-3.319-.157-6.642,0C48.377,33.936,49.5,32.6,50.62,31.385ZM40.671,41.03q-.827,1.434-1.586,2.906c-.7-1.658-1.3-3.288-1.786-4.863,1.6-.359,3.313-.652,5.095-.875q-.895,1.4-1.723,2.831Zm1.774,14.346a51.117,51.117,0,0,1-5.179-.833c.5-1.6,1.108-3.268,1.822-4.961q.762,1.473,1.593,2.908.848,1.464,1.764,2.886Zm8.241,6.812c-1.138-1.228-2.273-2.586-3.381-4.047q1.614.063,3.288.064,1.718,0,3.392-.075A51.053,51.053,0,0,1,50.687,62.188ZM62.145,49.5a50.988,50.988,0,0,1,1.887,4.944,50.95,50.95,0,0,1-5.242.894q.891-1.413,1.725-2.86.848-1.47,1.63-2.978Zm-3.71,1.778q-1.277,2.218-2.7,4.35c-1.667.119-3.39.181-5.146.181s-3.45-.054-5.088-.161q-1.455-2.126-2.747-4.357t-2.4-4.528q1.11-2.309,2.39-4.531h0q1.28-2.22,2.725-4.338c1.671-.126,3.385-.192,5.117-.192s3.456.067,5.127.194q1.43,2.113,2.708,4.323t2.423,4.509q-1.126,2.317-2.415,4.549Zm4.953-26.809c1.882,1.085,2.614,5.462,1.431,11.2q-.116.561-.253,1.117A57.511,57.511,0,0,0,57.053,35.6a56.4,56.4,0,0,0-4.75-5.929q.631-.609,1.292-1.185c4.149-3.611,8.027-5.036,9.793-4.017Z" transform="translate(-17.673 -17.11)" fill="#fff"/>
    <path id="Path_686" data-name="Path 686" d="M113.062,94.665a5.018,5.018,0,1,1-5.018,5.018,5.018,5.018,0,0,1,5.018-5.018" transform="translate(-80.142 -70.092)" fill="#8989a2"/>
  </g>
</svg>
